<?xml version="1.0" encoding="UTF-8"?>
<!-- Generator: Adobe Illustrator 16.0.4, SVG Export Plug-In . SVG Version: 6.00 Build 0)  -->
<!DOCTYPE svg PUBLIC "-//W3C//DTD SVG 1.1//EN" "http://www.w3.org/Graphics/SVG/1.1/DTD/svg11.dtd">
<svg version="1.1" id="Layer_1" xmlns="http://www.w3.org/2000/svg" xmlns:xlink="http://www.w3.org/1999/xlink" x="0px" y="0px" width="229px" height="50px" viewBox="0 0 229 50" enable-background="new 0 0 229 50" xml:space="preserve">
<g>
	<rect x="43.702" y="-16" fill="none" width="152.246" height="83"/>
	<g>
		<path fill="#FFFFFF" d="M64.363,28.134c0-1.297,0.243-2.451,0.648-3.566c0.446-1.135,1.057-2.107,1.905-2.998    c0.892-0.973,1.904-1.703,3.039-2.189c1.135-0.566,2.311-0.811,3.526-0.811c1.297,0,2.513,0.244,3.606,0.73    c1.134,0.459,2.15,1.135,3.042,2.025c0.88,0.898,1.541,1.945,2.028,3.08c0.467,1.135,0.681,2.27,0.681,3.486    c0,1.215-0.194,2.432-0.647,3.566c-0.439,1.199-1.053,2.188-1.844,3.08c-0.911,0.973-1.92,1.729-3.056,2.27    c-1.136,0.486-2.352,0.729-3.648,0.729s-2.513-0.221-3.607-0.648c-1.124-0.486-2.107-1.215-2.999-2.107    c-0.811-0.891-1.481-1.945-1.945-3.08C64.606,30.546,64.363,29.351,64.363,28.134z M67.728,28.075c0,1.82,0.567,3.301,1.702,4.518    c1.135,1.149,2.547,1.783,4.215,1.783c1.661,0,3.081-0.647,4.179-1.79c1.129-1.21,1.695-2.749,1.695-4.532    s-0.566-3.324-1.695-4.459c-1.098-1.215-2.518-1.783-4.189-1.783c-1.692,0-3.07,0.568-4.205,1.783    C68.295,24.812,67.728,26.271,67.728,28.075z"/>
		<path fill="#FFFFFF" d="M83.487,28.204c0-1.285,0.237-2.502,0.648-3.555c0.457-1.135,1.054-2.107,1.917-3    c0.892-0.973,1.89-1.701,3.023-2.227c1.134-0.529,2.33-0.771,3.548-0.771c1.299,0,2.516,0.242,3.575,0.688    c1.133,0.446,2.161,1.175,3.078,2.067c0.854,0.891,1.541,1.945,2.027,3.067c0.442,1.109,0.653,2.282,0.653,3.497    c0,1.217-0.167,2.432-0.653,3.566c-0.406,1.135-1.055,2.189-1.835,3.05c-0.921,1.003-1.899,1.733-3.031,2.277    c-1.137,0.509-2.354,0.753-3.652,0.753c-1.298,0-2.516-0.244-3.629-0.73c-1.124-0.436-2.105-1.135-2.996-2.052    c-0.823-0.866-1.474-1.919-1.944-3.054C83.73,30.565,83.487,29.42,83.487,28.204z M86.863,28.134c0,1.783,0.568,3.324,1.703,4.469    c1.133,1.205,2.525,1.819,4.22,1.819c1.633,0,3.073-0.614,4.157-1.829c1.119-1.167,1.686-2.676,1.686-4.459    c0-1.857-0.566-3.322-1.686-4.539c-1.084-1.135-2.524-1.766-4.188-1.766c-1.673,0-3.056,0.631-4.188,1.848    C87.432,24.826,86.863,26.351,86.863,28.134z"/>
		<path fill="#FFFFFF" d="M145.155,36.726v-2.188c-0.831,0.811-1.783,1.459-2.756,1.945c-1.056,0.404-2.107,0.648-3.243,0.648    c-2.755,0-4.945-0.893-6.729-2.676c-1.783-1.84-2.673-4.053-2.673-6.809c0-1.215,0.241-2.432,0.648-3.566    c0.486-1.135,1.077-2.107,1.945-2.995c0.89-0.896,1.862-1.624,2.918-2.039c1.052-0.478,2.27-0.72,3.646-0.72    c1.218,0,2.353,0.242,3.404,0.648c1.056,0.486,1.945,1.135,2.839,2.019v-2.181h3.242v17.912H145.155z M133.076,27.647    c0,1.783,0.601,3.324,1.783,4.539c1.218,1.217,2.677,1.865,4.459,1.865c1.539,0,2.924-0.648,4.133-1.865    c1.218-1.215,1.866-2.674,1.866-4.295c0-1.783-0.648-3.288-1.809-4.539c-1.192-1.238-2.651-1.865-4.272-1.865    c-1.7,0-3.159,0.568-4.377,1.783C133.677,24.487,133.076,25.946,133.076,27.647z"/>
		<path fill="#FFFFFF" d="M151.232,37.132V2.846h4.622v34.286H151.232z"/>
		<path fill="#FFFFFF" d="M103.573,37.132V2.846h4.62v34.286H103.573z"/>
		<path fill="#FFFFFF" d="M176.197,30.565c-0.811,2.107-1.862,3.785-3.389,4.863c-1.475,1.135-3.258,1.703-5.365,1.703    c-1.349,0-2.539-0.244-3.646-0.73c-1.056-0.404-2.028-1.135-2.918-2.025c-0.864-0.893-1.538-1.945-1.958-3.08    c-0.474-1.193-0.719-2.352-0.719-3.566c0-1.297,0.198-2.432,0.648-3.54c0.407-1.081,1.056-2.054,1.866-2.947    c0.954-1.042,1.945-1.78,3.136-2.267c1.158-0.496,2.376-0.794,3.673-0.794c2.05,0,3.817,0.567,5.35,1.7    c1.538,1.134,2.594,2.74,3.321,4.768h-3.566c-0.565-1.055-1.297-1.865-2.187-2.432c-0.894-0.568-1.945-0.811-3.163-0.811    c-1.621,0-2.997,0.587-4.053,1.783c-1.135,1.215-1.7,2.725-1.7,4.457c0,1.805,0.565,3.324,1.7,4.533    c1.135,1.141,2.515,1.789,4.215,1.789c1.135,0,2.133-0.324,3.08-0.891c0.894-0.63,1.621-1.459,2.107-2.514H176.197z"/>
		<path fill="#FFFFFF" d="M65.215,37.05c-2.27-2.35-3.404-5.35-3.404-8.916c0-3.646,1.135-6.646,3.404-8.996    c2.27-2.432,5.065-3.648,8.43-3.648c0.556,0,1.094,0.082,1.621,0.123l1.742-6.201c-1.175-0.191-2.391-0.324-3.662-0.324    c-2.426,0-4.768,0.555-7.037,1.552c-2.27,1.042-4.296,2.581-6.079,4.462c-1.661,1.768-2.945,3.773-3.81,5.982    c-0.851,2.188-1.258,4.539-1.258,7.075c0,2.425,0.448,4.839,1.407,7.186c0.945,2.274,2.243,4.381,3.904,6.083    c1.783,1.865,3.77,3.242,5.958,4.215c0.121,0.038,0.243,0.082,0.364,0.151l1.743-6.295C67.322,38.915,66.228,38.104,65.215,37.05z    "/>
		<path fill="#FFFFFF" d="M129.672,36.888c-2.27-2.432-3.397-5.43-3.397-8.996s1.128-6.566,3.397-8.998    c2.27-2.355,5.108-3.566,8.43-3.566c0.569,0,1.135,0,1.621,0.082l1.783-6.16c-1.214-0.244-2.432-0.324-3.666-0.324    c-2.427,0-4.764,0.486-7.033,1.539c-2.27,1.055-4.294,2.514-6.077,4.459c-1.704,1.783-2.952,3.729-3.811,5.916    c-0.892,2.203-1.297,4.621-1.297,7.133c0,2.432,0.486,4.783,1.439,7.133c0.911,2.352,2.209,4.377,3.909,6.16    c1.783,1.854,3.729,3.242,5.932,4.147c0.149,0.067,0.229,0.128,0.391,0.149l1.704-6.242    C131.779,38.753,130.728,37.94,129.672,36.888z"/>
	</g>
</g>
<text transform="matrix(1 0 0 1 133.6309 48.0527)" fill="#FFFFFF" font-family="'MyriadPro-Regular'" font-size="11.7845">Manual J</text>
</svg>